<?xml version="1.0" standalone="no"?>
<svg xmlns:xlink="http://www.w3.org/1999/xlink" id="wave" style="transform:rotate(180deg); transition: 0.3s" viewBox="0 0 1440 380" version="1.1" xmlns="http://www.w3.org/2000/svg"><defs><linearGradient id="sw-gradient-0" x1="0" x2="0" y1="1" y2="0"><stop stop-color="rgba(62, 212.344, 243, 1)" offset="0%"/><stop stop-color="rgba(11, 122.754, 255, 1)" offset="100%"/></linearGradient></defs><path style="transform:translate(0, 0px); opacity:1" fill="url(#sw-gradient-0)" d="M0,38L26.7,88.7C53.3,139,107,241,160,234.3C213.3,228,267,114,320,57C373.3,0,427,0,480,25.3C533.3,51,587,101,640,139.3C693.3,177,747,203,800,221.7C853.3,241,907,253,960,240.7C1013.3,228,1067,190,1120,158.3C1173.3,127,1227,101,1280,133C1333.3,165,1387,253,1440,297.7C1493.3,342,1547,342,1600,329.3C1653.3,317,1707,291,1760,247C1813.3,203,1867,139,1920,126.7C1973.3,114,2027,152,2080,158.3C2133.3,165,2187,139,2240,120.3C2293.3,101,2347,89,2400,126.7C2453.3,165,2507,253,2560,266C2613.3,279,2667,215,2720,158.3C2773.3,101,2827,51,2880,25.3C2933.3,0,2987,0,3040,12.7C3093.3,25,3147,51,3200,82.3C3253.3,114,3307,152,3360,164.7C3413.3,177,3467,165,3520,152C3573.3,139,3627,127,3680,145.7C3733.3,165,3787,215,3813,240.7L3840,266L3840,380L3813.3,380C3786.7,380,3733,380,3680,380C3626.7,380,3573,380,3520,380C3466.7,380,3413,380,3360,380C3306.7,380,3253,380,3200,380C3146.7,380,3093,380,3040,380C2986.7,380,2933,380,2880,380C2826.7,380,2773,380,2720,380C2666.7,380,2613,380,2560,380C2506.7,380,2453,380,2400,380C2346.7,380,2293,380,2240,380C2186.7,380,2133,380,2080,380C2026.7,380,1973,380,1920,380C1866.7,380,1813,380,1760,380C1706.7,380,1653,380,1600,380C1546.7,380,1493,380,1440,380C1386.7,380,1333,380,1280,380C1226.7,380,1173,380,1120,380C1066.7,380,1013,380,960,380C906.7,380,853,380,800,380C746.7,380,693,380,640,380C586.7,380,533,380,480,380C426.7,380,373,380,320,380C266.7,380,213,380,160,380C106.7,380,53,380,27,380L0,380Z"/><defs><linearGradient id="sw-gradient-1" x1="0" x2="0" y1="1" y2="0"><stop stop-color="rgba(61.469, 0.399, 125.543, 1)" offset="0%"/><stop stop-color="rgba(209.799, 133.259, 255, 1)" offset="100%"/></linearGradient></defs><path style="transform:translate(0, 50px); opacity:0.9" fill="url(#sw-gradient-1)" d="M0,304L26.7,272.3C53.3,241,107,177,160,158.3C213.3,139,267,165,320,152C373.3,139,427,89,480,114C533.3,139,587,241,640,272.3C693.3,304,747,266,800,215.3C853.3,165,907,101,960,101.3C1013.3,101,1067,165,1120,183.7C1173.3,203,1227,177,1280,196.3C1333.3,215,1387,279,1440,297.7C1493.3,317,1547,291,1600,234.3C1653.3,177,1707,89,1760,69.7C1813.3,51,1867,101,1920,126.7C1973.3,152,2027,152,2080,158.3C2133.3,165,2187,177,2240,177.3C2293.3,177,2347,165,2400,158.3C2453.3,152,2507,152,2560,177.3C2613.3,203,2667,253,2720,285C2773.3,317,2827,329,2880,310.3C2933.3,291,2987,241,3040,228C3093.3,215,3147,241,3200,266C3253.3,291,3307,317,3360,285C3413.3,253,3467,165,3520,126.7C3573.3,89,3627,101,3680,120.3C3733.3,139,3787,165,3813,177.3L3840,190L3840,380L3813.3,380C3786.7,380,3733,380,3680,380C3626.7,380,3573,380,3520,380C3466.7,380,3413,380,3360,380C3306.7,380,3253,380,3200,380C3146.7,380,3093,380,3040,380C2986.7,380,2933,380,2880,380C2826.7,380,2773,380,2720,380C2666.7,380,2613,380,2560,380C2506.7,380,2453,380,2400,380C2346.7,380,2293,380,2240,380C2186.7,380,2133,380,2080,380C2026.7,380,1973,380,1920,380C1866.7,380,1813,380,1760,380C1706.7,380,1653,380,1600,380C1546.7,380,1493,380,1440,380C1386.7,380,1333,380,1280,380C1226.7,380,1173,380,1120,380C1066.7,380,1013,380,960,380C906.7,380,853,380,800,380C746.7,380,693,380,640,380C586.7,380,533,380,480,380C426.7,380,373,380,320,380C266.7,380,213,380,160,380C106.7,380,53,380,27,380L0,380Z"/></svg>